<svg width="200" height="40" viewBox="0 0 200 40" fill="none" xmlns="http://www.w3.org/2000/svg">
<g clip-path="url(#clip0_126_5623)">
<path d="M49.8672 23.0527C48.918 23.0527 48.1621 22.751 47.5996 22.1475C47.0371 21.5381 46.7559 20.8789 46.7559 20.1699C46.7559 19.8359 46.835 19.5078 46.9932 19.1855C47.1631 18.8574 47.3242 18.6172 47.4766 18.4648L47.7139 18.2451L49.5684 16.7686L46.5801 12.8838C46.9961 12.0518 47.4238 11.4512 47.8633 11.082C48.3145 10.7012 48.8828 10.5107 49.5684 10.5107C50.2539 10.5107 50.8047 10.6836 51.2207 11.0293C51.6426 11.3809 51.9004 11.6621 51.9941 11.873L53.0576 13.9121L54.7275 10.458H54.9824C55.8027 10.4873 56.541 10.7627 57.1973 11.2842C57.8594 11.8115 58.1904 12.4473 58.1904 13.1914C58.1904 13.9355 57.9355 14.5889 57.4258 15.1514C56.8574 15.7725 56.2832 16.3555 55.7031 16.9004L58.3135 20.5918C57.9209 21.4941 57.499 22.1182 57.0479 22.4639C56.6025 22.8096 56.0342 22.9824 55.3428 22.9824C54.6514 22.9824 54.0918 22.7832 53.6641 22.3848C53.248 21.9746 52.9141 21.585 52.6621 21.2158L52.2139 20.5479C50.7725 22.2178 49.9902 23.0527 49.8672 23.0527ZM67.9639 17.3311C67.9639 18.4092 67.7646 19.0449 67.3662 19.2383H61.8291C61.8291 19.3262 61.9434 19.5107 62.1719 19.792C62.4121 20.0732 62.8574 20.2139 63.5078 20.2139C64.7031 20.2139 65.5293 20.0557 65.9863 19.7393L66.2148 19.5811C66.2852 19.5811 66.54 19.6543 66.9795 19.8008C67.4307 19.9531 67.668 20.2578 67.6914 20.7148C67.7031 20.8438 67.709 21.0078 67.709 21.207C67.709 21.4355 67.668 21.6465 67.5859 21.8398C67.5039 22.0273 67.2725 22.2676 66.8916 22.5605C66.5107 22.8535 65.5117 23 63.8945 23C62.9043 23 62.0488 22.8652 61.3281 22.5957C60.5957 22.3203 59.9365 21.8428 59.3506 21.1631C58.7588 20.4658 58.4629 19.4521 58.4629 18.1221C58.4629 17.665 58.5273 17.1611 58.6562 16.6104C58.791 16.0479 58.9756 15.5908 59.21 15.2393C59.4502 14.8701 59.8398 14.4307 60.3789 13.9209C60.9297 13.3994 61.9697 13.1387 63.499 13.1387C64.958 13.1387 66.0391 13.4844 66.7422 14.1758C67.0469 14.4629 67.3281 14.873 67.5859 15.4062C67.8379 15.916 67.9639 16.5576 67.9639 17.3311ZM64.7734 17.3486V17.2256C64.7734 16.8447 64.6562 16.5342 64.4219 16.2939C64.1758 16.0479 63.8389 15.9248 63.4111 15.9248C62.5322 15.9248 62.0752 16.3994 62.04 17.3486H64.7734ZM79.2051 17.3662C79.2051 18.0518 79.1816 18.9482 79.1348 20.0557C79.0762 21.4033 79.0469 22.1094 79.0469 22.1738C78.9004 22.4609 78.5986 22.6748 78.1416 22.8154C77.6846 22.9502 77.2363 23.0176 76.7969 23.0176C76.0527 23.0176 75.4756 22.8125 75.0654 22.4023C74.585 22.0098 74.3447 21.3857 74.3447 20.5303C74.3799 19.2471 74.4062 18.0049 74.4238 16.8037C74.3301 16.71 74.1895 16.6631 74.002 16.6631C73.6152 16.6689 73.334 16.8916 73.1582 17.3311V22.5166C72.8535 22.8389 72.1328 23 70.9961 23C69.3906 23 68.5879 22.2148 68.5879 20.6445C68.6465 18.3945 68.6758 16.1738 68.6758 13.9824C69.4023 13.5488 70.1758 13.332 70.9961 13.332C71.3477 13.332 71.6553 13.3906 71.9189 13.5078C72.1885 13.625 72.3613 13.7305 72.4375 13.8242C72.5254 13.9238 72.6221 14.085 72.7275 14.3076L72.9033 14.6504L73.2197 14.4131C73.4189 14.2549 73.7031 14.0439 74.0723 13.7803C74.4648 13.4932 75.0361 13.3496 75.7861 13.3496C77.2275 13.3496 78.2119 13.7656 78.7393 14.5977L78.8799 14.4834C79.2021 14.2256 79.4336 14.0527 79.5742 13.9648C79.7559 13.8418 80.0312 13.71 80.4004 13.5693C80.7695 13.4229 81.209 13.3496 81.7188 13.3496C82.2051 13.3496 82.6768 13.4258 83.1338 13.5781C83.585 13.7305 84.001 13.9912 84.3818 14.3604C84.7744 14.7354 84.9707 15.5264 84.9707 16.7334V17.3662C84.9707 17.9932 84.9443 18.8574 84.8916 19.959L84.8037 22.1738C84.7803 22.2324 84.6953 22.3203 84.5488 22.4375C84.4199 22.543 84.2178 22.6689 83.9424 22.8154C83.6846 22.9502 83.1924 23.0176 82.4658 23.0176C81.7334 23.0176 81.1826 22.8096 80.8135 22.3936C80.4502 21.9658 80.2686 21.4912 80.2686 20.9697L80.3564 17.2959C80.3564 16.874 80.1602 16.6631 79.7676 16.6631C79.5684 16.6924 79.3809 16.7773 79.2051 16.918V17.3662ZM94.4014 16.4521C93.9033 16.4521 93.4727 16.6104 93.1094 16.9268C92.7578 17.2432 92.582 17.6299 92.582 18.0869C92.582 18.5439 92.7578 18.9365 93.1094 19.2646C93.4727 19.5928 93.9033 19.7568 94.4014 19.7568C94.6943 19.7568 94.9785 19.6836 95.2539 19.5371C95.5352 19.3906 95.749 19.2002 95.8955 18.9658C96.1357 18.8955 96.3584 18.8604 96.5635 18.8604C97.0029 18.8721 97.3691 19.0625 97.6621 19.4316C97.9609 19.8066 98.1104 20.1699 98.1104 20.5215C98.1104 20.8613 98.0693 21.1543 97.9873 21.4004C97.3428 22.4668 96.1064 23 94.2783 23C92.8604 23 91.6592 22.5078 90.6748 21.5234C89.6904 20.5391 89.1982 19.3525 89.1982 17.9639C89.1982 16.5693 89.6934 15.377 90.6836 14.3867C91.6738 13.3965 92.8428 12.9014 94.1904 12.9014C95.5439 12.9014 96.54 13.1943 97.1787 13.7803C97.8232 14.3604 98.1631 14.9199 98.1982 15.459C98.1982 16.2852 97.7969 16.915 96.9941 17.3486C96.8418 17.4541 96.5547 17.5332 96.1328 17.5859C96.0449 17.4512 95.9951 17.3662 95.9834 17.3311C95.5908 16.7451 95.0635 16.4521 94.4014 16.4521ZM106.188 13.2969C108.525 13.2969 109.694 14.3105 109.694 16.3379L109.51 22.2266C109.486 22.2793 109.328 22.4375 109.035 22.7012C108.742 22.959 108.168 23.0879 107.312 23.0879C106.451 23.0879 105.836 22.8799 105.467 22.4639C105.104 22.0361 104.922 21.5557 104.922 21.0225L105.01 17.2959C105.01 16.8623 104.802 16.6455 104.386 16.6455C104.028 16.6455 103.738 16.874 103.516 17.3311V22.499C103.393 22.6221 103.126 22.7363 102.716 22.8418C102.306 22.9473 101.857 23 101.371 23C100.873 23 100.466 22.9268 100.149 22.7803C99.8389 22.6396 99.5342 22.3818 99.2354 22.0068C98.9482 21.6494 98.8047 20.6855 98.8047 19.1152L98.8926 14.668C98.8926 13.959 98.8633 12.7461 98.8047 11.0293C99.5898 10.6074 100.357 10.3965 101.107 10.3965C101.33 10.3965 101.479 10.417 101.556 10.458C102.892 10.6572 103.565 11.5273 103.577 13.0684C103.577 13.5605 103.527 14.0322 103.428 14.4834C104.424 13.6924 105.344 13.2969 106.188 13.2969ZM109.817 13.8418C109.817 13.0449 110.075 12.4414 110.591 12.0312C111.112 11.6152 111.78 11.4072 112.595 11.4072C113.415 11.4072 114.124 11.6885 114.722 12.251C115.325 12.8018 115.627 13.5371 115.627 14.457C115.627 15.3711 115.226 16.124 114.423 16.7158C114.733 16.9736 114.889 17.3457 114.889 17.832V22.2441C114.443 22.7715 113.635 23.0352 112.463 23.0352C111.121 23.0352 110.43 22.4961 110.389 21.418C110.342 19.666 110.318 18.6758 110.318 18.4473C110.318 18.084 110.33 17.8174 110.354 17.6475C110.383 17.4482 110.45 17.2549 110.556 17.0674C110.667 16.874 110.787 16.7451 110.916 16.6807C111.203 16.7803 111.537 16.8359 111.918 16.8477C112.697 16.8477 113.365 16.5781 113.922 16.0391C114.484 15.4941 114.766 14.8438 114.766 14.0879L114.282 13.8242C114.282 14.4395 114.048 14.9727 113.579 15.4238C113.116 15.8691 112.562 16.0918 111.918 16.0918H111.848C111.549 16.0918 111.215 16.0068 110.846 15.8369C110.16 15.5029 109.817 14.8379 109.817 13.8418ZM120.997 19.0186C120.997 18.3037 121.038 17.542 121.12 16.7334C120.282 16.54 119.84 16.3057 119.793 16.0303C119.77 15.9307 119.758 15.541 119.758 14.8613C119.758 14.1934 119.77 13.8594 119.793 13.8594L120.461 13.6748C120.9 13.5459 121.152 13.4814 121.217 13.4814L121.067 11.7148L121.032 11.1172C121.495 10.7715 122.254 10.5986 123.309 10.5986C124.375 10.5986 125.025 10.8477 125.26 11.3457C125.5 11.8555 125.62 12.4883 125.62 13.2441L127.984 13.1387C128.178 13.9121 128.271 14.6387 128.266 15.3184C128.266 16.3027 128.014 16.8184 127.51 16.8652L125.638 17.0059C125.579 17.334 125.55 17.6943 125.55 18.0869C125.55 18.9775 125.772 19.4199 126.218 19.4141H126.288C126.938 19.373 127.396 19.2734 127.659 19.1152C127.706 19.1152 127.847 19.2061 128.081 19.3877C128.315 19.5635 128.433 20.0117 128.433 20.7324C128.433 21.459 128.157 22.0273 127.606 22.4375C127.067 22.8477 126.083 23.0527 124.653 23.0527C122.216 23.0527 120.997 21.708 120.997 19.0186ZM128.591 13.8418C128.591 13.0449 128.849 12.4414 129.364 12.0312C129.886 11.6152 130.554 11.4072 131.368 11.4072C132.188 11.4072 132.897 11.6885 133.495 12.251C134.099 12.8018 134.4 13.5371 134.4 14.457C134.4 15.3711 133.999 16.124 133.196 16.7158C133.507 16.9736 133.662 17.3457 133.662 17.832V22.2441C133.217 22.7715 132.408 23.0352 131.236 23.0352C129.895 23.0352 129.203 22.4961 129.162 21.418C129.115 19.666 129.092 18.6758 129.092 18.4473C129.092 18.084 129.104 17.8174 129.127 17.6475C129.156 17.4482 129.224 17.2549 129.329 17.0674C129.44 16.874 129.561 16.7451 129.689 16.6807C129.977 16.7803 130.311 16.8359 130.691 16.8477C131.471 16.8477 132.139 16.5781 132.695 16.0391C133.258 15.4941 133.539 14.8438 133.539 14.0879L133.056 13.8242C133.056 14.4395 132.821 14.9727 132.353 15.4238C131.89 15.8691 131.336 16.0918 130.691 16.0918H130.621C130.322 16.0918 129.988 16.0068 129.619 15.8369C128.934 15.5029 128.591 14.8379 128.591 13.8418ZM144.235 17.3311C144.235 18.4092 144.036 19.0449 143.638 19.2383H138.101C138.101 19.3262 138.215 19.5107 138.443 19.792C138.684 20.0732 139.129 20.2139 139.779 20.2139C140.975 20.2139 141.801 20.0557 142.258 19.7393L142.486 19.5811C142.557 19.5811 142.812 19.6543 143.251 19.8008C143.702 19.9531 143.939 20.2578 143.963 20.7148C143.975 20.8438 143.98 21.0078 143.98 21.207C143.98 21.4355 143.939 21.6465 143.857 21.8398C143.775 22.0273 143.544 22.2676 143.163 22.5605C142.782 22.8535 141.783 23 140.166 23C139.176 23 138.32 22.8652 137.6 22.5957C136.867 22.3203 136.208 21.8428 135.622 21.1631C135.03 20.4658 134.734 19.4521 134.734 18.1221C134.734 17.665 134.799 17.1611 134.928 16.6104C135.062 16.0479 135.247 15.5908 135.481 15.2393C135.722 14.8701 136.111 14.4307 136.65 13.9209C137.201 13.3994 138.241 13.1387 139.771 13.1387C141.229 13.1387 142.311 13.4844 143.014 14.1758C143.318 14.4629 143.6 14.873 143.857 15.4062C144.109 15.916 144.235 16.5576 144.235 17.3311ZM141.045 17.3486V17.2256C141.045 16.8447 140.928 16.5342 140.693 16.2939C140.447 16.0479 140.11 15.9248 139.683 15.9248C138.804 15.9248 138.347 16.3994 138.312 17.3486H141.045ZM141.95 10.5723C142.179 10.7539 142.293 11.0234 142.293 11.3809C142.252 11.6328 142.152 11.8379 141.994 11.9961C141.859 12.1309 141.558 12.3037 141.089 12.5146C140.45 12.04 139.94 11.6328 139.56 11.293L138.013 12.6025C137.655 12.4502 137.354 12.2539 137.107 12.0137C136.914 11.791 136.809 11.5801 136.791 11.3809V11.2578C136.791 10.9707 136.911 10.7422 137.151 10.5723L138.874 9.30664C139.167 9.05469 139.393 8.92871 139.551 8.92871C139.697 8.92871 140.143 9.20703 140.887 9.76367L141.95 10.5723ZM137.811 6.52051C137.957 6.40332 138.689 5.89941 140.008 5.00879L140.597 4.61328C140.849 4.61328 141.124 4.7832 141.423 5.12305C141.728 5.45117 141.88 5.79102 141.88 6.14258C141.88 6.25391 141.769 6.43848 141.546 6.69629C141.323 6.94238 140.289 7.66016 138.443 8.84961C138.109 8.84961 137.811 8.72656 137.547 8.48047C137.289 8.23438 137.16 7.92676 137.16 7.55762C137.16 7.19434 137.377 6.84863 137.811 6.52051ZM146.011 19.0186C146.011 18.3037 146.052 17.542 146.134 16.7334C145.296 16.54 144.854 16.3057 144.807 16.0303C144.783 15.9307 144.771 15.541 144.771 14.8613C144.771 14.1934 144.783 13.8594 144.807 13.8594L145.475 13.6748C145.914 13.5459 146.166 13.4814 146.23 13.4814L146.081 11.7148L146.046 11.1172C146.509 10.7715 147.268 10.5986 148.322 10.5986C149.389 10.5986 150.039 10.8477 150.273 11.3457C150.514 11.8555 150.634 12.4883 150.634 13.2441L152.998 13.1387C153.191 13.9121 153.285 14.6387 153.279 15.3184C153.279 16.3027 153.027 16.8184 152.523 16.8652L150.651 17.0059C150.593 17.334 150.563 17.6943 150.563 18.0869C150.563 18.9775 150.786 19.4199 151.231 19.4141H151.302C151.952 19.373 152.409 19.2734 152.673 19.1152C152.72 19.1152 152.86 19.2061 153.095 19.3877C153.329 19.5635 153.446 20.0117 153.446 20.7324C153.446 21.459 153.171 22.0273 152.62 22.4375C152.081 22.8477 151.097 23.0527 149.667 23.0527C147.229 23.0527 146.011 21.708 146.011 19.0186Z" fill="white"/>
<g clip-path="url(#clip1_126_5623)" filter="url(#filter0_d_126_5623)">
<path d="M193.634 40H6.36558C2.85186 40 0 36.6498 0 32.5222V14.5366C0 10.4089 2.85186 7.05878 6.36558 7.05878H193.634C197.148 7.05878 200 10.4089 200 14.5366V32.5222C199.99 36.6498 197.148 40 193.634 40Z" fill="#BD000B"/>
<path d="M194.488 4.11765C197.53 4.11765 200 7.29984 200 11.2348V32.8828C200 36.8064 196.939 40 193.888 40H144.022V4.11765H194.488Z" fill="url(#paint0_linear_126_5623)"/>
<path d="M5.51178 4.11765C2.47013 4.11765 1.14441e-05 7.29984 1.14441e-05 11.2348V32.8828C1.14441e-05 36.8064 3.06102 40 6.11235 40H55.9783V4.11765H5.51178Z" fill="url(#paint1_linear_126_5623)"/>
<path d="M193.644 35.805H6.36589C2.852 35.805 0 32.1624 0 27.6743V8.13073C0 3.64266 2.852 0 6.36589 0H193.644C197.158 0 200.01 3.64266 200.01 8.13073V27.6867C200 32.1624 197.158 35.805 193.644 35.805Z" fill="#FF000A"/>
<path d="M49.8672 25.0527C49.9902 25.0527 50.7725 24.2178 52.2139 22.5479L52.6621 23.2158C52.917 23.585 53.251 23.9717 53.6641 24.3848C54.0947 24.7803 54.6484 24.9824 55.3428 24.9824C56.0371 24.9824 56.5996 24.8066 57.0479 24.4639C57.4961 24.1211 57.918 23.4971 58.3135 22.5918L55.7031 18.9004C56.2832 18.3555 56.8545 17.7754 57.4258 17.1514C57.9355 16.5889 58.1904 15.9385 58.1904 15.1914C58.1904 14.4443 57.8564 13.8115 57.1973 13.2842C56.5381 12.7656 55.7998 12.4844 54.9824 12.458H54.7275L53.0576 15.9121L51.9941 13.873C51.8975 13.6621 51.6426 13.3809 51.2207 13.0293C50.8076 12.6865 50.2539 12.5107 49.5684 12.5107C48.8828 12.5107 48.3115 12.7041 47.8633 13.082C47.4238 13.4512 46.9932 14.0488 46.5801 14.8838L49.5684 18.7686L47.7139 20.2451L47.4766 20.4648C47.3271 20.6143 47.1602 20.8604 46.9932 21.1855C46.835 21.5107 46.7559 21.8359 46.7559 22.1699C46.7559 22.8818 47.0371 23.541 47.5996 24.1475C48.1621 24.7539 48.918 25.0527 49.8672 25.0527ZM67.9639 19.3311C67.9639 18.5576 67.8408 17.916 67.5859 17.4062C67.3311 16.8701 67.0498 16.4658 66.7422 16.1758C66.0391 15.4814 64.958 15.1387 63.499 15.1387C61.9697 15.1387 60.9326 15.4023 60.3789 15.9209C59.8428 16.4307 59.4473 16.8701 59.21 17.2393C58.9727 17.5908 58.7881 18.0479 58.6562 18.6104C58.5244 19.1641 58.4629 19.665 58.4629 20.1221C58.4629 21.4492 58.7617 22.4688 59.3506 23.1631C59.9395 23.8398 60.5986 24.3232 61.3281 24.5957C62.0488 24.8682 62.9014 25 63.8945 25C65.5117 25 66.5137 24.8506 66.8916 24.5605C67.2695 24.2705 67.5068 24.0244 67.5859 23.8398C67.665 23.6465 67.709 23.4355 67.709 23.207C67.709 23.0049 67.7002 22.8467 67.6914 22.7148C67.665 22.2578 67.4277 21.9502 66.9795 21.8008C66.54 21.6514 66.2852 21.5811 66.2148 21.5811L65.9863 21.7393C65.5293 22.0557 64.7031 22.2139 63.5078 22.2139C62.8574 22.2139 62.4092 22.0732 62.1719 21.792C61.9434 21.5107 61.8291 21.3262 61.8291 21.2383H67.3662C67.7617 21.0449 67.9639 20.4121 67.9639 19.3311ZM62.04 19.3486C62.0752 18.3994 62.5322 17.9248 63.4111 17.9248C63.8418 17.9248 64.1758 18.0479 64.4219 18.2939C64.6592 18.5312 64.7734 18.8477 64.7734 19.2256V19.3486H62.04ZM79.2051 18.918C79.3809 18.7773 79.5654 18.6895 79.7676 18.6631C80.1631 18.6631 80.3564 18.874 80.3564 19.2959L80.2686 22.9697C80.2686 23.4883 80.4531 23.9629 80.8135 24.3936C81.1826 24.8066 81.7363 25.0176 82.4658 25.0176C83.1953 25.0176 83.6875 24.9473 83.9424 24.8154C84.2148 24.666 84.417 24.543 84.5488 24.4375C84.6982 24.3232 84.7773 24.2354 84.8037 24.1738L84.8916 21.959C84.9443 20.8604 84.9707 19.9902 84.9707 19.3662V18.7334C84.9707 17.5293 84.7773 16.7383 84.3818 16.3604C84.0039 15.9912 83.582 15.7275 83.1338 15.5781C82.6768 15.4287 82.2021 15.3496 81.7188 15.3496C81.209 15.3496 80.7695 15.4199 80.4004 15.5693C80.0312 15.71 79.7588 15.8418 79.5742 15.9648C79.4336 16.0527 79.2051 16.2285 78.8799 16.4834L78.7393 16.5977C78.2119 15.7627 77.2275 15.3496 75.7861 15.3496C75.0391 15.3496 74.4678 15.4902 74.0723 15.7803C73.7031 16.0439 73.4219 16.2549 73.2197 16.4131L72.9033 16.6504L72.7275 16.3076C72.6221 16.0879 72.5254 15.9209 72.4375 15.8242C72.3584 15.7275 72.1914 15.6221 71.9189 15.5078C71.6553 15.3936 71.3477 15.332 70.9961 15.332C70.1787 15.332 69.4053 15.5518 68.6758 15.9824C68.6758 18.1709 68.6494 20.3945 68.5879 22.6445C68.5879 24.2178 69.3877 25 70.9961 25C72.1299 25 72.8506 24.8418 73.1582 24.5166V19.3311C73.334 18.8916 73.6152 18.6719 74.002 18.6631C74.1865 18.6631 74.3271 18.707 74.4238 18.8037C74.4062 20.0078 74.3799 21.2471 74.3447 22.5303C74.3447 23.3828 74.582 24.0068 75.0654 24.4023C75.4785 24.8154 76.0498 25.0176 76.7969 25.0176C77.2363 25.0176 77.6846 24.9473 78.1416 24.8154C78.5986 24.6748 78.8975 24.4639 79.0469 24.1738C79.0469 24.1123 79.0732 23.4004 79.1348 22.0557C79.1787 20.9482 79.2051 20.0518 79.2051 19.3662V18.918ZM94.4014 18.4521C95.0605 18.4521 95.5879 18.7422 95.9834 19.3311C95.9922 19.3662 96.0449 19.4541 96.1328 19.5859C96.5547 19.5332 96.8447 19.4541 96.9941 19.3486C97.7939 18.918 98.1982 18.2852 98.1982 17.459C98.1631 16.9229 97.8203 16.3604 97.1787 15.7803C96.5371 15.1914 95.5439 14.9014 94.1904 14.9014C92.8457 14.9014 91.6768 15.3936 90.6836 16.3867C89.6904 17.3799 89.1982 18.5664 89.1982 19.9639C89.1982 21.3525 89.6904 22.5391 90.6748 23.5234C91.6592 24.5078 92.8633 25 94.2783 25C96.1064 25 97.3457 24.4639 97.9873 23.4004C98.0664 23.1543 98.1104 22.8643 98.1104 22.5215C98.1104 22.1699 97.9609 21.8096 97.6621 21.4316C97.3721 21.0625 97.0029 20.8691 96.5635 20.8604C96.3613 20.8604 96.1328 20.8955 95.8955 20.9658C95.7461 21.2031 95.5352 21.3877 95.2539 21.5371C94.9814 21.6865 94.6914 21.7568 94.4014 21.7568C93.9004 21.7568 93.4697 21.5898 93.1094 21.2646C92.7578 20.9395 92.582 20.5439 92.582 20.0869C92.582 19.6299 92.7578 19.2432 93.1094 18.9268C93.4697 18.6104 93.9004 18.4521 94.4014 18.4521ZM106.188 15.2969C105.344 15.2969 104.421 15.6924 103.428 16.4834C103.524 16.0352 103.577 15.5605 103.577 15.0684C103.568 13.5303 102.892 12.6602 101.556 12.458C101.477 12.4141 101.327 12.3965 101.107 12.3965C100.36 12.3965 99.5869 12.6074 98.8047 13.0293C98.8662 14.7432 98.8926 15.9561 98.8926 16.668L98.8047 21.1152C98.8047 22.6885 98.9453 23.6465 99.2354 24.0068C99.5342 24.3848 99.8418 24.6396 100.149 24.7803C100.466 24.9297 100.87 25 101.371 25C101.854 25 102.303 24.9473 102.716 24.8418C103.129 24.7363 103.393 24.6221 103.516 24.499V19.3311C103.735 18.874 104.025 18.6455 104.386 18.6455C104.799 18.6455 105.01 18.8652 105.01 19.2959L104.922 23.0225C104.922 23.5586 105.106 24.0332 105.467 24.4639C105.836 24.877 106.451 25.0879 107.312 25.0879C108.165 25.0879 108.745 24.9561 109.035 24.7012C109.325 24.4375 109.483 24.2793 109.51 24.2266L109.694 18.3379C109.694 16.3076 108.525 15.2969 106.188 15.2969ZM109.817 15.8418C109.817 16.835 110.16 17.5029 110.846 17.8369C111.215 18.0039 111.549 18.0918 111.848 18.0918H111.918C112.56 18.0918 113.113 17.8721 113.579 17.4238C114.045 16.9756 114.282 16.4395 114.282 15.8242L114.766 16.0879C114.766 16.8438 114.484 17.4941 113.922 18.0391C113.368 18.5752 112.7 18.8477 111.918 18.8477C111.54 18.8389 111.206 18.7773 110.916 18.6807C110.784 18.7422 110.67 18.874 110.556 19.0674C110.45 19.252 110.38 19.4453 110.354 19.6475C110.327 19.8145 110.318 20.0869 110.318 20.4473C110.318 20.6758 110.345 21.6689 110.389 23.418C110.433 24.499 111.118 25.0352 112.463 25.0352C113.632 25.0352 114.44 24.7715 114.889 24.2441V19.832C114.889 19.3486 114.73 18.9707 114.423 18.7158C115.223 18.127 115.627 17.3711 115.627 16.457C115.627 15.5342 115.328 14.8047 114.722 14.251C114.124 13.6885 113.412 13.4072 112.595 13.4072C111.777 13.4072 111.109 13.6182 110.591 14.0312C110.072 14.4443 109.817 15.042 109.817 15.8418ZM120.997 21.0186C120.997 23.708 122.219 25.0527 124.653 25.0527C126.086 25.0527 127.07 24.8506 127.606 24.4375C128.16 24.0244 128.433 23.4619 128.433 22.7324C128.433 22.0117 128.318 21.5635 128.081 21.3877C127.844 21.2031 127.703 21.1152 127.659 21.1152C127.396 21.2734 126.938 21.3701 126.288 21.4141H126.218C125.77 21.4229 125.55 20.9746 125.55 20.0869C125.55 19.6914 125.576 19.3311 125.638 19.0059L127.51 18.8652C128.011 18.8213 128.266 18.3027 128.266 17.3184C128.274 16.6416 128.178 15.9121 127.984 15.1387L125.62 15.2441C125.62 14.4883 125.497 13.8555 125.26 13.3457C125.022 12.8447 124.372 12.5986 123.309 12.5986C122.254 12.5986 121.498 12.7744 121.032 13.1172L121.067 13.7148L121.217 15.4814C121.155 15.4814 120.9 15.543 120.461 15.6748L119.793 15.8594C119.767 15.8594 119.758 16.1934 119.758 16.8613C119.758 17.5381 119.767 17.9336 119.793 18.0303C119.837 18.3027 120.285 18.54 121.12 18.7334C121.041 19.542 120.997 20.3066 120.997 21.0186ZM128.591 15.8418C128.591 16.835 128.934 17.5029 129.619 17.8369C129.988 18.0039 130.322 18.0918 130.621 18.0918H130.691C131.333 18.0918 131.887 17.8721 132.353 17.4238C132.818 16.9756 133.056 16.4395 133.056 15.8242L133.539 16.0879C133.539 16.8438 133.258 17.4941 132.695 18.0391C132.142 18.5752 131.474 18.8477 130.691 18.8477C130.313 18.8389 129.979 18.7773 129.689 18.6807C129.558 18.7422 129.443 18.874 129.329 19.0674C129.224 19.252 129.153 19.4453 129.127 19.6475C129.101 19.8145 129.092 20.0869 129.092 20.4473C129.092 20.6758 129.118 21.6689 129.162 23.418C129.206 24.499 129.892 25.0352 131.236 25.0352C132.405 25.0352 133.214 24.7715 133.662 24.2441V19.832C133.662 19.3486 133.504 18.9707 133.196 18.7158C133.996 18.127 134.4 17.3711 134.4 16.457C134.4 15.5342 134.102 14.8047 133.495 14.251C132.897 13.6885 132.186 13.4072 131.368 13.4072C130.551 13.4072 129.883 13.6182 129.364 14.0312C128.846 14.4443 128.591 15.042 128.591 15.8418ZM144.235 19.3311C144.235 18.5576 144.112 17.916 143.857 17.4062C143.603 16.8701 143.321 16.4658 143.014 16.1758C142.311 15.4814 141.229 15.1387 139.771 15.1387C138.241 15.1387 137.204 15.4023 136.65 15.9209C136.114 16.4307 135.719 16.8701 135.481 17.2393C135.244 17.5908 135.06 18.0479 134.928 18.6104C134.796 19.1641 134.734 19.665 134.734 20.1221C134.734 21.4492 135.033 22.4688 135.622 23.1631C136.211 23.8398 136.87 24.3232 137.6 24.5957C138.32 24.8682 139.173 25 140.166 25C141.783 25 142.785 24.8506 143.163 24.5605C143.541 24.2705 143.778 24.0244 143.857 23.8398C143.937 23.6465 143.98 23.4355 143.98 23.207C143.98 23.0049 143.972 22.8467 143.963 22.7148C143.937 22.2578 143.699 21.9502 143.251 21.8008C142.812 21.6514 142.557 21.5811 142.486 21.5811L142.258 21.7393C141.801 22.0557 140.975 22.2139 139.779 22.2139C139.129 22.2139 138.681 22.0732 138.443 21.792C138.215 21.5107 138.101 21.3262 138.101 21.2383H143.638C144.033 21.0449 144.235 20.4121 144.235 19.3311ZM138.312 19.3486C138.347 18.3994 138.804 17.9248 139.683 17.9248C140.113 17.9248 140.447 18.0479 140.693 18.2939C140.931 18.5312 141.045 18.8477 141.045 19.2256V19.3486H138.312ZM140.887 11.7637C140.14 11.21 139.7 10.9287 139.551 10.9287C139.393 10.9287 139.164 11.0518 138.874 11.3066L137.151 12.5723C136.914 12.7393 136.791 12.9678 136.791 13.2578V13.3809C136.809 13.583 136.914 13.7939 137.107 14.0137C137.354 14.251 137.652 14.4531 138.013 14.6025L139.56 13.293C139.938 13.6357 140.447 14.04 141.089 14.5146C141.555 14.3037 141.862 14.1279 141.994 13.9961C142.152 13.8379 142.249 13.6357 142.293 13.3809C142.293 13.0205 142.179 12.7568 141.95 12.5723L140.887 11.7637ZM137.811 8.52051C137.38 8.8457 137.16 9.19727 137.16 9.55762C137.16 9.92676 137.292 10.2344 137.547 10.4805C137.811 10.7266 138.109 10.8496 138.443 10.8496C140.289 9.66309 141.326 8.94238 141.546 8.69629C141.766 8.44141 141.88 8.25684 141.88 8.14258C141.88 7.79102 141.73 7.44824 141.423 7.12305C141.124 6.78027 140.852 6.61328 140.597 6.61328L140.008 7.00879C138.689 7.89648 137.96 8.40625 137.811 8.52051ZM146.011 21.0186C146.011 23.708 147.232 25.0527 149.667 25.0527C151.1 25.0527 152.084 24.8506 152.62 24.4375C153.174 24.0244 153.446 23.4619 153.446 22.7324C153.446 22.0117 153.332 21.5635 153.095 21.3877C152.857 21.2031 152.717 21.1152 152.673 21.1152C152.409 21.2734 151.952 21.3701 151.302 21.4141H151.231C150.783 21.4229 150.563 20.9746 150.563 20.0869C150.563 19.6914 150.59 19.3311 150.651 19.0059L152.523 18.8652C153.024 18.8213 153.279 18.3027 153.279 17.3184C153.288 16.6416 153.191 15.9121 152.998 15.1387L150.634 15.2441C150.634 14.4883 150.511 13.8555 150.273 13.3457C150.036 12.8447 149.386 12.5986 148.322 12.5986C147.268 12.5986 146.512 12.7744 146.046 13.1172L146.081 13.7148L146.23 15.4814C146.169 15.4814 145.914 15.543 145.475 15.6748L144.807 15.8594C144.78 15.8594 144.771 16.1934 144.771 16.8613C144.771 17.5381 144.78 17.9336 144.807 18.0303C144.851 18.3027 145.299 18.54 146.134 18.7334C146.055 19.542 146.011 20.3066 146.011 21.0186Z" fill="white"/>
</g>
</g>
<defs>
<filter id="filter0_d_126_5623" x="-8" y="-4" width="216" height="56" filterUnits="userSpaceOnUse" color-interpolation-filters="sRGB">
<feFlood flood-opacity="0" result="BackgroundImageFix"/>
<feColorMatrix in="SourceAlpha" type="matrix" values="0 0 0 0 0 0 0 0 0 0 0 0 0 0 0 0 0 0 127 0" result="hardAlpha"/>
<feOffset dy="4"/>
<feGaussianBlur stdDeviation="4"/>
<feColorMatrix type="matrix" values="0 0 0 0 0.645833 0 0 0 0 0.0592014 0 0 0 0 0.0592014 0 0 0 0.45 0"/>
<feBlend mode="normal" in2="BackgroundImageFix" result="effect1_dropShadow_126_5623"/>
<feBlend mode="normal" in="SourceGraphic" in2="effect1_dropShadow_126_5623" result="shape"/>
</filter>
<linearGradient id="paint0_linear_126_5623" x1="200" y1="22.0568" x2="136.413" y2="22.3096" gradientUnits="userSpaceOnUse">
<stop offset="0.28125" stop-color="#93000A"/>
<stop offset="1" stop-color="#D23333" stop-opacity="0"/>
</linearGradient>
<linearGradient id="paint1_linear_126_5623" x1="6.04634e-06" y1="22.0568" x2="63.5871" y2="22.3096" gradientUnits="userSpaceOnUse">
<stop offset="0.28125" stop-color="#93000A"/>
<stop offset="1" stop-color="#D23333" stop-opacity="0"/>
</linearGradient>
<clipPath id="clip0_126_5623">
<rect width="200" height="40" fill="white"/>
</clipPath>
<clipPath id="clip1_126_5623">
<rect width="200" height="40" fill="white"/>
</clipPath>
</defs>
</svg>
