<svg width="1520" height="600" viewBox="0 0 1520 600" fill="none" xmlns="http://www.w3.org/2000/svg">
<g clip-path="url(#clip0_194_291)">
<path d="M39.3318 600C17.6536 600 0 581.839 0 559.538V56.1443C0 33.8117 17.6536 15.6821 39.3318 15.6821H910.668C932.377 15.6821 950 33.8431 950 56.1443V559.538C950 581.87 932.346 600 910.668 600H39.3318Z" fill="#FFCA7B"/>
<path d="M39.3318 584.318C17.6536 584.318 0 566.157 0 543.856V40.4622C0 18.1296 17.6536 0 39.3318 0H910.668C932.377 0 950 18.1609 950 40.4622V543.856C950 566.188 932.346 584.318 910.668 584.318H39.3318Z" fill="#FDE8B3"/>
<path d="M910.668 571.771H39.3318C24.3308 571.771 12.1959 559.256 12.1959 543.855V40.4614C12.1959 25.0293 24.3613 12.5457 39.3318 12.5457H910.668C925.669 12.5457 937.804 25.0607 937.804 40.4614V543.855C937.804 559.287 925.669 571.771 910.668 571.771Z" fill="#FFF6D4"/>
<path d="M910.668 571.771H39.3318C24.3308 571.771 12.1959 559.256 12.1959 543.855V40.4614C12.1959 25.0293 24.3613 12.5457 39.3318 12.5457H910.668C925.669 12.5457 937.804 25.0607 937.804 40.4614V543.855C937.804 559.287 925.669 571.771 910.668 571.771Z" stroke="#FFB489" stroke-width="3" stroke-miterlimit="2.61313" stroke-linecap="round" stroke-dasharray="10 10"/>
<path d="M1023.57 600C999.523 600 980 581.847 980 559.555V56.3727C980 34.0495 999.556 15.9275 1023.57 15.9275H1475.43C1499.48 15.9275 1519 34.0808 1519 56.3727V559.555C1519 581.878 1499.44 600 1475.43 600H1023.57Z" fill="#FFCA7B"/>
<path d="M1023.57 584.324C999.523 584.324 980 566.17 980 543.878V40.6962C980 18.3729 999.556 0.250977 1023.57 0.250977H1475.43C1499.48 0.250977 1519 18.4043 1519 40.6962V543.878C1519 566.202 1499.44 584.324 1475.43 584.324H1023.57Z" fill="#FDE8B3"/>
<path d="M1475.43 571.783H1023.57C1006.95 571.783 993.51 559.273 993.51 543.879V40.6963C993.51 25.2707 1006.99 12.7922 1023.57 12.7922H1475.43C1492.05 12.7922 1505.49 25.302 1505.49 40.6963V543.879C1505.49 559.304 1492.05 571.783 1475.43 571.783Z" fill="#FFF6D4"/>
<path d="M1475.43 571.783H1023.57C1006.95 571.783 993.51 559.273 993.51 543.879V40.6963C993.51 25.2707 1006.99 12.7922 1023.57 12.7922H1475.43C1492.05 12.7922 1505.49 25.302 1505.49 40.6963V543.879C1505.49 559.304 1492.05 571.783 1475.43 571.783Z" stroke="#FFB489" stroke-width="3" stroke-miterlimit="2.61313" stroke-linecap="round" stroke-dasharray="10 10"/>
<path d="M1046.69 578.711L1004.3 572.472L988.171 547.233L982.184 542.53V41.2605L988.171 36.5576L1004.3 11.3185L1046.69 5.07928C1046.69 5.07928 1056.83 0.940703 1021.6 0.0314696C992.96 -0.720999 977.205 22.6369 977.205 22.6369C967.469 34.551 963.719 37.4668 946.766 18.4043C929.814 -0.658295 907 0.0314696 907 0.0314696L936.651 23.7029L946.766 42.4833V541.339L936.651 560.119L907 583.791C907 583.791 929.845 584.512 946.766 565.418C963.719 546.355 967.469 549.271 977.205 561.185C977.205 561.185 992.96 584.543 1021.6 583.791C1056.8 582.85 1046.69 578.711 1046.69 578.711ZM964.238 519.805C957.463 519.805 952.012 514.349 952.012 507.64C952.012 500.899 957.495 495.475 964.238 495.475C970.981 495.475 976.464 500.93 976.464 507.64C976.496 514.349 971.013 519.805 964.238 519.805ZM964.238 483.279C957.463 483.279 952.012 477.823 952.012 471.114C952.012 464.373 957.495 458.949 964.238 458.949C970.981 458.949 976.464 464.404 976.464 471.114C976.496 477.823 971.013 483.279 964.238 483.279ZM964.238 448.069C957.463 448.069 952.012 442.614 952.012 435.905C952.012 429.164 957.495 423.74 964.238 423.74C970.981 423.74 976.464 429.195 976.464 435.905C976.496 442.614 971.013 448.069 964.238 448.069ZM964.238 411.7C957.463 411.7 952.012 406.245 952.012 399.535C952.012 392.794 957.495 387.37 964.238 387.37C970.981 387.37 976.464 392.826 976.464 399.535C976.496 406.245 971.013 411.7 964.238 411.7ZM964.238 376.303C957.463 376.303 952.012 370.847 952.012 364.138C952.012 357.397 957.495 351.973 964.238 351.973C970.981 351.973 976.464 357.428 976.464 364.138C976.496 370.879 971.013 376.303 964.238 376.303ZM964.238 340.121C957.463 340.121 952.012 334.666 952.012 327.957C952.012 321.216 957.495 315.792 964.238 315.792C970.981 315.792 976.464 321.247 976.464 327.957C976.496 334.666 971.013 340.121 964.238 340.121ZM964.238 304.567C957.463 304.567 952.012 299.112 952.012 292.402C952.012 285.662 957.495 280.237 964.238 280.237C970.981 280.237 976.464 285.693 976.464 292.402C976.496 299.112 971.013 304.567 964.238 304.567ZM964.238 268.512C957.463 268.512 952.012 263.056 952.012 256.347C952.012 249.637 957.495 244.182 964.238 244.182C970.981 244.182 976.464 249.637 976.464 256.347C976.464 263.056 971.013 268.512 964.238 268.512ZM964.238 232.832C957.463 232.832 952.012 227.377 952.012 220.667C952.012 213.926 957.495 208.502 964.238 208.502C970.981 208.502 976.464 213.958 976.464 220.667C976.496 227.377 971.013 232.832 964.238 232.832ZM964.238 196.933C957.463 196.933 952.012 191.477 952.012 184.768C952.012 178.027 957.495 172.603 964.238 172.603C970.981 172.603 976.464 178.058 976.464 184.768C976.496 191.477 971.013 196.933 964.238 196.933ZM964.238 161.065C957.463 161.065 952.012 155.61 952.012 148.9C952.012 142.159 957.495 136.735 964.238 136.735C970.981 136.735 976.464 142.191 976.464 148.9C976.496 155.61 971.013 161.065 964.238 161.065ZM964.238 125.354C957.463 125.354 952.012 119.899 952.012 113.189C952.012 106.48 957.495 101.024 964.238 101.024C970.981 101.024 976.464 106.48 976.464 113.189C976.464 119.899 971.013 125.354 964.238 125.354ZM964.238 89.3298C957.463 89.3298 952.012 83.8744 952.012 77.1649C952.012 70.4554 957.495 65 964.238 65C970.981 65 976.464 70.4554 976.464 77.1649C976.464 83.8744 971.013 89.3298 964.238 89.3298Z" fill="#FDE8B3"/>
</g>
<defs>
<clipPath id="clip0_194_291">
<rect width="1520" height="600" fill="white"/>
</clipPath>
</defs>
</svg>
