<svg width="950" height="646" viewBox="0 0 950 646" fill="none" xmlns="http://www.w3.org/2000/svg">
<path d="M39.3318 646C17.6536 646 0 627.849 0 605.56V102.44C0 80.1197 17.6536 62 39.3318 62H910.668C932.377 62 950 80.1511 950 102.44V605.56C950 627.88 932.346 646 910.668 646H39.3318Z" fill="#FFCA7B"/>
<path d="M39.3318 630C17.6536 630 0 610.419 0 586.375V43.6255C0 19.5469 17.6536 0 39.3318 0H910.668C932.377 0 950 19.5808 950 43.6255V586.375C950 610.453 932.346 630 910.668 630H39.3318Z" fill="#FDE8B3"/>
<path d="M910.853 618H39.1474C24.1401 618 12 604.438 12 587.749V42.2507C12 25.5278 24.1706 12 39.1474 12H910.853C925.86 12 938 25.5618 938 42.2507V587.749C938 604.472 925.86 618 910.853 618Z" fill="#FFF6D4"/>
<path d="M910.853 618H39.1474C24.1401 618 12 604.438 12 587.749V42.2507C12 25.5278 24.1706 12 39.1474 12H910.853C925.86 12 938 25.5618 938 42.2507V587.749C938 604.472 925.86 618 910.853 618Z" stroke="#FFB489" stroke-width="3" stroke-miterlimit="2.61313" stroke-linecap="round" stroke-dasharray="10 10"/>
</svg>
