<svg width="539" height="205" viewBox="0 0 539 205" fill="none" xmlns="http://www.w3.org/2000/svg">
<path d="M43.5713 205C19.5227 205 0 184.377 0 159.052L0 117.948C0 92.5874 19.5565 72 43.5713 72H495.429C519.477 72 539 92.623 539 117.948L539 159.052C539 184.413 519.444 205 495.429 205H43.5713Z" fill="#FFCA7B"/>
<path d="M43.5713 189C19.5227 189 0 166.399 0 138.644V50.3556C0 22.5624 19.5565 0 43.5713 0H495.429C519.477 0 539 22.6014 539 50.3556V138.644C539 166.438 519.444 189 495.429 189H43.5713Z" fill="#FDE8B3"/>
<path d="M496.765 177L42.2387 176.023C25.5228 176.023 12.0005 159.475 12.0005 139.111L12 48.9121C12 28.5068 25.5563 12 42.2382 12H496.761C513.477 12 526.999 28.5482 526.999 48.9121L527 139.111C527 159.516 513.481 177 496.765 177Z" fill="#FFF6D4"/>
<path d="M496.762 177H42.2382C25.5223 177 12 161.847 12 143.2L12 45.8005C12 27.1153 25.5563 12 42.2383 12H496.762C513.478 12 527 27.1533 527 45.8005L527 143.2C527 161.885 513.478 177 496.762 177Z" stroke="#FFB489" stroke-width="3" stroke-miterlimit="2.61313" stroke-linecap="round" stroke-dasharray="10 10"/>
<g clip-path="url(#clip0_158_79)">
<path d="M109.957 76.5193C99.243 73.9216 90.3499 74.1768 79 74.1768C67.6502 74.1768 58.757 73.9217 48.043 76.5194C48.015 76.7814 48 77.0473 48 77.3168V104.683C48 108.797 51.3347 112.131 55.4481 112.131H102.552C106.665 112.131 110 108.797 110 104.683V77.3168C110 77.0473 109.985 76.7814 109.957 76.5193Z" fill="url(#paint0_linear_158_79)"/>
<path d="M83.1203 97.577C82.7571 96.6299 81.7833 96.0539 80.7816 96.2132C77.8754 96.6751 74.828 96 72.3353 94.1869L69.5137 92.1349L66.3203 95.1575L69.6595 97.5861C72.3459 99.5399 75.5686 100.654 78.8903 100.677C79.7534 100.683 80.6067 100.618 81.4444 100.487C82.8004 100.273 83.6115 98.8587 83.1203 97.577Z" fill="#04A5DE"/>
<path d="M109.957 76.5193C98.471 77.0419 79 83.1565 79 83.1565L107.564 110.192C109.061 108.83 110 106.866 110 104.683V77.3168C110 77.0473 109.985 76.7814 109.957 76.5193Z" fill="url(#paint1_linear_158_79)"/>
<path d="M48.043 76.5193C59.5291 77.0419 79 83.1565 79 83.1565L50.4356 110.192C48.9392 108.83 48 106.866 48 104.683V77.3168C48 77.0473 48.015 76.7814 48.043 76.5193Z" fill="url(#paint2_linear_158_79)"/>
<path d="M58.9306 99.1942C59.753 100.052 61.1137 100.085 61.9768 99.2685L69.5139 92.1348L48.0434 76.5195C48.0153 76.7815 48 77.0475 48 77.3168V81.833L62.7645 92.5711L59.0055 96.1289C58.1347 96.9531 58.1012 98.3285 58.9306 99.1942Z" fill="#04A5DE"/>
<path d="M102.552 69.8687H55.448C51.604 69.8687 48.441 72.781 48.043 76.5194L72.3355 94.1871C76.3087 97.0767 81.6913 97.0767 85.6645 94.1871L109.957 76.5194C109.559 72.7809 106.396 69.8687 102.552 69.8687Z" fill="url(#paint3_linear_158_79)"/>
<path d="M68.146 85.3274C69.1648 85.3274 69.9908 84.6637 69.9908 83.8449C69.9908 83.0262 69.1648 82.3625 68.146 82.3625C67.1272 82.3625 66.3013 83.0262 66.3013 83.8449C66.3013 84.6637 67.1272 85.3274 68.146 85.3274Z" fill="#EAADCD"/>
<path d="M89.8545 85.3274C90.8733 85.3274 91.6993 84.6637 91.6993 83.8449C91.6993 83.0262 90.8733 82.3625 89.8545 82.3625C88.8357 82.3625 88.0098 83.0262 88.0098 83.8449C88.0098 84.6637 88.8357 85.3274 89.8545 85.3274Z" fill="#EAADCD"/>
<path d="M71.3079 83.8449C73.3282 83.8449 74.9659 82.2072 74.9659 80.1869C74.9659 78.1667 73.3282 76.5289 71.3079 76.5289C69.2876 76.5289 67.6499 78.1667 67.6499 80.1869C67.6499 82.2072 69.2876 83.8449 71.3079 83.8449Z" fill="white"/>
<path d="M86.6917 83.8449C88.7119 83.8449 90.3497 82.2072 90.3497 80.1869C90.3497 78.1667 88.7119 76.5289 86.6917 76.5289C84.6714 76.5289 83.0337 78.1667 83.0337 80.1869C83.0337 82.2072 84.6714 83.8449 86.6917 83.8449Z" fill="white"/>
<path d="M71.3081 82.3671C72.5122 82.3671 73.4883 81.391 73.4883 80.187C73.4883 78.9829 72.5122 78.0068 71.3081 78.0068C70.104 78.0068 69.1279 78.9829 69.1279 80.187C69.1279 81.391 70.104 82.3671 71.3081 82.3671Z" fill="#3B3B44"/>
<path d="M86.6919 82.3671C87.896 82.3671 88.8721 81.391 88.8721 80.187C88.8721 78.9829 87.896 78.0068 86.6919 78.0068C85.4878 78.0068 84.5117 78.9829 84.5117 80.187C84.5117 81.391 85.4878 82.3671 86.6919 82.3671Z" fill="#3B3B44"/>
<path d="M79.0001 83.9613C78.3519 83.9613 77.7039 83.7162 77.1752 83.2259C76.9252 82.994 76.9103 82.6034 77.1423 82.3532C77.3742 82.1031 77.765 82.0882 78.015 82.3203C78.5952 82.8582 79.4053 82.8582 79.9854 82.3203C80.2354 82.0884 80.6262 82.1031 80.8582 82.3532C81.0899 82.6033 81.0753 82.9939 80.8252 83.2259C80.2963 83.7161 79.6483 83.9613 79.0001 83.9613Z" fill="#3B3B44"/>
<path d="M95.6998 74.809H94.3307C93.6486 74.809 93.0957 74.2561 93.0957 73.574C93.0957 72.8919 93.6486 72.339 94.3307 72.339H95.6998C96.3819 72.339 96.9349 72.8919 96.9349 73.574C96.9349 74.2561 96.3819 74.809 95.6998 74.809Z" fill="#DFF7FA"/>
<path d="M105.31 76.0147C104.977 76.0147 104.645 75.8806 104.401 75.6161C103.929 75.1032 103.255 74.8089 102.552 74.8089H100.747C100.065 74.8089 99.5117 74.256 99.5117 73.5739C99.5117 72.8918 100.065 72.3389 100.747 72.3389H102.552C103.943 72.3389 105.28 72.9235 106.218 73.9432C106.68 74.445 106.648 75.2263 106.146 75.6883C105.909 75.9069 105.609 76.0147 105.31 76.0147Z" fill="#DFF7FA"/>
</g>
<defs>
<linearGradient id="paint0_linear_158_79" x1="79.0024" y1="82.8784" x2="79.0024" y2="108.412" gradientUnits="userSpaceOnUse">
<stop stop-color="#53AAE6"/>
<stop offset="1" stop-color="#A4D2F0"/>
</linearGradient>
<linearGradient id="paint1_linear_158_79" x1="93.9472" y1="93.3534" x2="116.274" y2="93.3534" gradientUnits="userSpaceOnUse">
<stop stop-color="#53AAE6"/>
<stop offset="1" stop-color="#A4D2F0"/>
</linearGradient>
<linearGradient id="paint2_linear_158_79" x1="64.0499" y1="93.3534" x2="41.7228" y2="93.3534" gradientUnits="userSpaceOnUse">
<stop stop-color="#53AAE6"/>
<stop offset="1" stop-color="#A4D2F0"/>
</linearGradient>
<linearGradient id="paint3_linear_158_79" x1="79.0024" y1="56.5794" x2="79.0024" y2="88.0795" gradientUnits="userSpaceOnUse">
<stop stop-color="#74D2E8"/>
<stop offset="1" stop-color="#BAEAF5"/>
</linearGradient>
<clipPath id="clip0_158_79">
<rect width="62" height="62" fill="white" transform="translate(48 60)"/>
</clipPath>
</defs>
</svg>
