<svg width="160" height="40" viewBox="0 0 160 40" fill="none" xmlns="http://www.w3.org/2000/svg">
<g clip-path="url(#clip0_190_583)">
<path d="M29.8672 23.0527C28.918 23.0527 28.1621 22.751 27.5996 22.1475C27.0371 21.5381 26.7559 20.8789 26.7559 20.1699C26.7559 19.8359 26.835 19.5078 26.9932 19.1855C27.1631 18.8574 27.3242 18.6172 27.4766 18.4648L27.7139 18.2451L29.5684 16.7686L26.5801 12.8838C26.9961 12.0518 27.4238 11.4512 27.8633 11.082C28.3145 10.7012 28.8828 10.5107 29.5684 10.5107C30.2539 10.5107 30.8047 10.6836 31.2207 11.0293C31.6426 11.3809 31.9004 11.6621 31.9941 11.873L33.0576 13.9121L34.7275 10.458H34.9824C35.8027 10.4873 36.541 10.7627 37.1973 11.2842C37.8594 11.8115 38.1904 12.4473 38.1904 13.1914C38.1904 13.9355 37.9355 14.5889 37.4258 15.1514C36.8574 15.7725 36.2832 16.3555 35.7031 16.9004L38.3135 20.5918C37.9209 21.4941 37.499 22.1182 37.0479 22.4639C36.6025 22.8096 36.0342 22.9824 35.3428 22.9824C34.6514 22.9824 34.0918 22.7832 33.6641 22.3848C33.248 21.9746 32.9141 21.585 32.6621 21.2158L32.2139 20.5479C30.7725 22.2178 29.9902 23.0527 29.8672 23.0527ZM47.9639 17.3311C47.9639 18.4092 47.7646 19.0449 47.3662 19.2383H41.8291C41.8291 19.3262 41.9434 19.5107 42.1719 19.792C42.4121 20.0732 42.8574 20.2139 43.5078 20.2139C44.7031 20.2139 45.5293 20.0557 45.9863 19.7393L46.2148 19.5811C46.2852 19.5811 46.54 19.6543 46.9795 19.8008C47.4307 19.9531 47.668 20.2578 47.6914 20.7148C47.7031 20.8438 47.709 21.0078 47.709 21.207C47.709 21.4355 47.668 21.6465 47.5859 21.8398C47.5039 22.0273 47.2725 22.2676 46.8916 22.5605C46.5107 22.8535 45.5117 23 43.8945 23C42.9043 23 42.0488 22.8652 41.3281 22.5957C40.5957 22.3203 39.9365 21.8428 39.3506 21.1631C38.7588 20.4658 38.4629 19.4521 38.4629 18.1221C38.4629 17.665 38.5273 17.1611 38.6562 16.6104C38.791 16.0479 38.9756 15.5908 39.21 15.2393C39.4502 14.8701 39.8398 14.4307 40.3789 13.9209C40.9297 13.3994 41.9697 13.1387 43.499 13.1387C44.958 13.1387 46.0391 13.4844 46.7422 14.1758C47.0469 14.4629 47.3281 14.873 47.5859 15.4062C47.8379 15.916 47.9639 16.5576 47.9639 17.3311ZM44.7734 17.3486V17.2256C44.7734 16.8447 44.6562 16.5342 44.4219 16.2939C44.1758 16.0479 43.8389 15.9248 43.4111 15.9248C42.5322 15.9248 42.0752 16.3994 42.04 17.3486H44.7734ZM59.2051 17.3662C59.2051 18.0518 59.1816 18.9482 59.1348 20.0557C59.0762 21.4033 59.0469 22.1094 59.0469 22.1738C58.9004 22.4609 58.5986 22.6748 58.1416 22.8154C57.6846 22.9502 57.2363 23.0176 56.7969 23.0176C56.0527 23.0176 55.4756 22.8125 55.0654 22.4023C54.585 22.0098 54.3447 21.3857 54.3447 20.5303C54.3799 19.2471 54.4062 18.0049 54.4238 16.8037C54.3301 16.71 54.1895 16.6631 54.002 16.6631C53.6152 16.6689 53.334 16.8916 53.1582 17.3311V22.5166C52.8535 22.8389 52.1328 23 50.9961 23C49.3906 23 48.5879 22.2148 48.5879 20.6445C48.6465 18.3945 48.6758 16.1738 48.6758 13.9824C49.4023 13.5488 50.1758 13.332 50.9961 13.332C51.3477 13.332 51.6553 13.3906 51.9189 13.5078C52.1885 13.625 52.3613 13.7305 52.4375 13.8242C52.5254 13.9238 52.6221 14.085 52.7275 14.3076L52.9033 14.6504L53.2197 14.4131C53.4189 14.2549 53.7031 14.0439 54.0723 13.7803C54.4648 13.4932 55.0361 13.3496 55.7861 13.3496C57.2275 13.3496 58.2119 13.7656 58.7393 14.5977L58.8799 14.4834C59.2021 14.2256 59.4336 14.0527 59.5742 13.9648C59.7559 13.8418 60.0312 13.71 60.4004 13.5693C60.7695 13.4229 61.209 13.3496 61.7188 13.3496C62.2051 13.3496 62.6768 13.4258 63.1338 13.5781C63.585 13.7305 64.001 13.9912 64.3818 14.3604C64.7744 14.7354 64.9707 15.5264 64.9707 16.7334V17.3662C64.9707 17.9932 64.9443 18.8574 64.8916 19.959L64.8037 22.1738C64.7803 22.2324 64.6953 22.3203 64.5488 22.4375C64.4199 22.543 64.2178 22.6689 63.9424 22.8154C63.6846 22.9502 63.1924 23.0176 62.4658 23.0176C61.7334 23.0176 61.1826 22.8096 60.8135 22.3936C60.4502 21.9658 60.2686 21.4912 60.2686 20.9697L60.3564 17.2959C60.3564 16.874 60.1602 16.6631 59.7676 16.6631C59.5684 16.6924 59.3809 16.7773 59.2051 16.918V17.3662ZM74.4014 16.4521C73.9033 16.4521 73.4727 16.6104 73.1094 16.9268C72.7578 17.2432 72.582 17.6299 72.582 18.0869C72.582 18.5439 72.7578 18.9365 73.1094 19.2646C73.4727 19.5928 73.9033 19.7568 74.4014 19.7568C74.6943 19.7568 74.9785 19.6836 75.2539 19.5371C75.5352 19.3906 75.749 19.2002 75.8955 18.9658C76.1357 18.8955 76.3584 18.8604 76.5635 18.8604C77.0029 18.8721 77.3691 19.0625 77.6621 19.4316C77.9609 19.8066 78.1104 20.1699 78.1104 20.5215C78.1104 20.8613 78.0693 21.1543 77.9873 21.4004C77.3428 22.4668 76.1064 23 74.2783 23C72.8604 23 71.6592 22.5078 70.6748 21.5234C69.6904 20.5391 69.1982 19.3525 69.1982 17.9639C69.1982 16.5693 69.6934 15.377 70.6836 14.3867C71.6738 13.3965 72.8428 12.9014 74.1904 12.9014C75.5439 12.9014 76.54 13.1943 77.1787 13.7803C77.8232 14.3604 78.1631 14.9199 78.1982 15.459C78.1982 16.2852 77.7969 16.915 76.9941 17.3486C76.8418 17.4541 76.5547 17.5332 76.1328 17.5859C76.0449 17.4512 75.9951 17.3662 75.9834 17.3311C75.5908 16.7451 75.0635 16.4521 74.4014 16.4521ZM86.1875 13.2969C88.5254 13.2969 89.6943 14.3105 89.6943 16.3379L89.5098 22.2266C89.4863 22.2793 89.3281 22.4375 89.0352 22.7012C88.7422 22.959 88.168 23.0879 87.3125 23.0879C86.4512 23.0879 85.8359 22.8799 85.4668 22.4639C85.1035 22.0361 84.9219 21.5557 84.9219 21.0225L85.0098 17.2959C85.0098 16.8623 84.8018 16.6455 84.3857 16.6455C84.0283 16.6455 83.7383 16.874 83.5156 17.3311V22.499C83.3926 22.6221 83.126 22.7363 82.7158 22.8418C82.3057 22.9473 81.8574 23 81.3711 23C80.873 23 80.4658 22.9268 80.1494 22.7803C79.8389 22.6396 79.5342 22.3818 79.2354 22.0068C78.9482 21.6494 78.8047 20.6855 78.8047 19.1152L78.8926 14.668C78.8926 13.959 78.8633 12.7461 78.8047 11.0293C79.5898 10.6074 80.3574 10.3965 81.1074 10.3965C81.3301 10.3965 81.4795 10.417 81.5557 10.458C82.8916 10.6572 83.5654 11.5273 83.5771 13.0684C83.5771 13.5605 83.5273 14.0322 83.4277 14.4834C84.4238 13.6924 85.3438 13.2969 86.1875 13.2969ZM89.8174 13.8418C89.8174 13.0449 90.0752 12.4414 90.5908 12.0312C91.1123 11.6152 91.7803 11.4072 92.5947 11.4072C93.415 11.4072 94.124 11.6885 94.7217 12.251C95.3252 12.8018 95.627 13.5371 95.627 14.457C95.627 15.3711 95.2256 16.124 94.4229 16.7158C94.7334 16.9736 94.8887 17.3457 94.8887 17.832V22.2441C94.4434 22.7715 93.6348 23.0352 92.4629 23.0352C91.1211 23.0352 90.4297 22.4961 90.3887 21.418C90.3418 19.666 90.3184 18.6758 90.3184 18.4473C90.3184 18.084 90.3301 17.8174 90.3535 17.6475C90.3828 17.4482 90.4502 17.2549 90.5557 17.0674C90.667 16.874 90.7871 16.7451 90.916 16.6807C91.2031 16.7803 91.5371 16.8359 91.918 16.8477C92.6973 16.8477 93.3652 16.5781 93.9219 16.0391C94.4844 15.4941 94.7656 14.8438 94.7656 14.0879L94.2822 13.8242C94.2822 14.4395 94.0479 14.9727 93.5791 15.4238C93.1162 15.8691 92.5625 16.0918 91.918 16.0918H91.8477C91.5488 16.0918 91.2148 16.0068 90.8457 15.8369C90.1602 15.5029 89.8174 14.8379 89.8174 13.8418ZM100.997 19.0186C100.997 18.3037 101.038 17.542 101.12 16.7334C100.282 16.54 99.8398 16.3057 99.793 16.0303C99.7695 15.9307 99.7578 15.541 99.7578 14.8613C99.7578 14.1934 99.7695 13.8594 99.793 13.8594L100.461 13.6748C100.9 13.5459 101.152 13.4814 101.217 13.4814L101.067 11.7148L101.032 11.1172C101.495 10.7715 102.254 10.5986 103.309 10.5986C104.375 10.5986 105.025 10.8477 105.26 11.3457C105.5 11.8555 105.62 12.4883 105.62 13.2441L107.984 13.1387C108.178 13.9121 108.271 14.6387 108.266 15.3184C108.266 16.3027 108.014 16.8184 107.51 16.8652L105.638 17.0059C105.579 17.334 105.55 17.6943 105.55 18.0869C105.55 18.9775 105.772 19.4199 106.218 19.4141H106.288C106.938 19.373 107.396 19.2734 107.659 19.1152C107.706 19.1152 107.847 19.2061 108.081 19.3877C108.315 19.5635 108.433 20.0117 108.433 20.7324C108.433 21.459 108.157 22.0273 107.606 22.4375C107.067 22.8477 106.083 23.0527 104.653 23.0527C102.216 23.0527 100.997 21.708 100.997 19.0186ZM108.591 13.8418C108.591 13.0449 108.849 12.4414 109.364 12.0312C109.886 11.6152 110.554 11.4072 111.368 11.4072C112.188 11.4072 112.897 11.6885 113.495 12.251C114.099 12.8018 114.4 13.5371 114.4 14.457C114.4 15.3711 113.999 16.124 113.196 16.7158C113.507 16.9736 113.662 17.3457 113.662 17.832V22.2441C113.217 22.7715 112.408 23.0352 111.236 23.0352C109.895 23.0352 109.203 22.4961 109.162 21.418C109.115 19.666 109.092 18.6758 109.092 18.4473C109.092 18.084 109.104 17.8174 109.127 17.6475C109.156 17.4482 109.224 17.2549 109.329 17.0674C109.44 16.874 109.561 16.7451 109.689 16.6807C109.977 16.7803 110.311 16.8359 110.691 16.8477C111.471 16.8477 112.139 16.5781 112.695 16.0391C113.258 15.4941 113.539 14.8438 113.539 14.0879L113.056 13.8242C113.056 14.4395 112.821 14.9727 112.353 15.4238C111.89 15.8691 111.336 16.0918 110.691 16.0918H110.621C110.322 16.0918 109.988 16.0068 109.619 15.8369C108.934 15.5029 108.591 14.8379 108.591 13.8418ZM124.235 17.3311C124.235 18.4092 124.036 19.0449 123.638 19.2383H118.101C118.101 19.3262 118.215 19.5107 118.443 19.792C118.684 20.0732 119.129 20.2139 119.779 20.2139C120.975 20.2139 121.801 20.0557 122.258 19.7393L122.486 19.5811C122.557 19.5811 122.812 19.6543 123.251 19.8008C123.702 19.9531 123.939 20.2578 123.963 20.7148C123.975 20.8438 123.98 21.0078 123.98 21.207C123.98 21.4355 123.939 21.6465 123.857 21.8398C123.775 22.0273 123.544 22.2676 123.163 22.5605C122.782 22.8535 121.783 23 120.166 23C119.176 23 118.32 22.8652 117.6 22.5957C116.867 22.3203 116.208 21.8428 115.622 21.1631C115.03 20.4658 114.734 19.4521 114.734 18.1221C114.734 17.665 114.799 17.1611 114.928 16.6104C115.062 16.0479 115.247 15.5908 115.481 15.2393C115.722 14.8701 116.111 14.4307 116.65 13.9209C117.201 13.3994 118.241 13.1387 119.771 13.1387C121.229 13.1387 122.311 13.4844 123.014 14.1758C123.318 14.4629 123.6 14.873 123.857 15.4062C124.109 15.916 124.235 16.5576 124.235 17.3311ZM121.045 17.3486V17.2256C121.045 16.8447 120.928 16.5342 120.693 16.2939C120.447 16.0479 120.11 15.9248 119.683 15.9248C118.804 15.9248 118.347 16.3994 118.312 17.3486H121.045ZM121.95 10.5723C122.179 10.7539 122.293 11.0234 122.293 11.3809C122.252 11.6328 122.152 11.8379 121.994 11.9961C121.859 12.1309 121.558 12.3037 121.089 12.5146C120.45 12.04 119.94 11.6328 119.56 11.293L118.013 12.6025C117.655 12.4502 117.354 12.2539 117.107 12.0137C116.914 11.791 116.809 11.5801 116.791 11.3809V11.2578C116.791 10.9707 116.911 10.7422 117.151 10.5723L118.874 9.30664C119.167 9.05469 119.393 8.92871 119.551 8.92871C119.697 8.92871 120.143 9.20703 120.887 9.76367L121.95 10.5723ZM117.811 6.52051C117.957 6.40332 118.689 5.89941 120.008 5.00879L120.597 4.61328C120.849 4.61328 121.124 4.7832 121.423 5.12305C121.728 5.45117 121.88 5.79102 121.88 6.14258C121.88 6.25391 121.769 6.43848 121.546 6.69629C121.323 6.94238 120.289 7.66016 118.443 8.84961C118.109 8.84961 117.811 8.72656 117.547 8.48047C117.289 8.23438 117.16 7.92676 117.16 7.55762C117.16 7.19434 117.377 6.84863 117.811 6.52051ZM126.011 19.0186C126.011 18.3037 126.052 17.542 126.134 16.7334C125.296 16.54 124.854 16.3057 124.807 16.0303C124.783 15.9307 124.771 15.541 124.771 14.8613C124.771 14.1934 124.783 13.8594 124.807 13.8594L125.475 13.6748C125.914 13.5459 126.166 13.4814 126.23 13.4814L126.081 11.7148L126.046 11.1172C126.509 10.7715 127.268 10.5986 128.322 10.5986C129.389 10.5986 130.039 10.8477 130.273 11.3457C130.514 11.8555 130.634 12.4883 130.634 13.2441L132.998 13.1387C133.191 13.9121 133.285 14.6387 133.279 15.3184C133.279 16.3027 133.027 16.8184 132.523 16.8652L130.651 17.0059C130.593 17.334 130.563 17.6943 130.563 18.0869C130.563 18.9775 130.786 19.4199 131.231 19.4141H131.302C131.952 19.373 132.409 19.2734 132.673 19.1152C132.72 19.1152 132.86 19.2061 133.095 19.3877C133.329 19.5635 133.446 20.0117 133.446 20.7324C133.446 21.459 133.171 22.0273 132.62 22.4375C132.081 22.8477 131.097 23.0527 129.667 23.0527C127.229 23.0527 126.011 21.708 126.011 19.0186Z" fill="white"/>
<g clip-path="url(#clip1_190_583)" filter="url(#filter0_d_190_583)">
<path d="M154.908 40H5.09247C2.28149 40 0 36.6498 0 32.5222V14.5366C0 10.4089 2.28149 7.05878 5.09247 7.05878H154.908C157.719 7.05878 160 10.4089 160 14.5366V32.5222C159.992 36.6498 157.719 40 154.908 40Z" fill="#BD000B"/>
<path d="M155.591 4.11765C158.024 4.11765 160 7.29984 160 11.2348V32.8828C160 36.8064 157.552 40 155.111 40H115.218V4.11765H155.591Z" fill="url(#paint0_linear_190_583)"/>
<path d="M4.40903 4.11765C1.97572 4.11765 -0.000385284 7.29984 -0.000385284 11.2348V32.8828C-0.000385284 36.8064 2.44842 40 4.88948 40H44.7822V4.11765H4.40903Z" fill="url(#paint1_linear_190_583)"/>
<path d="M154.915 35.805H5.09271C2.2816 35.805 0 32.1624 0 27.6743V8.13073C0 3.64266 2.2816 0 5.09271 0H154.915C157.726 0 160.008 3.64266 160.008 8.13073V27.6867C160 32.1624 157.726 35.805 154.915 35.805Z" fill="#FF000A"/>
<path d="M62.1849 16.9141V23.1631C62.1849 23.3037 62.1117 23.5 61.9652 23.752C61.8246 24.0039 61.6576 24.2148 61.4642 24.3848C61.2767 24.5488 60.9867 24.6953 60.5941 24.8242C60.2132 24.9531 59.8089 25.0176 59.3812 25.0176C58.6371 25.0176 58.0716 24.8535 57.6849 24.5254C57.5209 24.373 57.3363 24.1533 57.1312 23.8662C56.9203 23.5674 56.7767 23.1104 56.7005 22.4951V16.9141H54.4857C54.0638 16.2637 53.8529 15.5342 53.8529 14.7256C53.8529 13.9053 54.0462 13.2637 54.433 12.8008C54.8197 12.332 55.3705 12.0977 56.0853 12.0977L64.224 12.0361C64.6459 12.6748 64.8568 13.4043 64.8568 14.2246C64.8568 15.0449 64.6634 15.6982 64.2767 16.1846C63.89 16.6709 63.3451 16.9141 62.642 16.9141H62.1849ZM71.264 23.9365C70.6429 24.6455 69.8285 25 68.8207 25C67.8129 25 66.9164 24.7363 66.1312 24.209C65.3519 23.6816 64.9623 22.9404 64.9623 21.9854C64.9623 21.0303 65.305 20.3125 65.9906 19.832C66.682 19.3516 67.4554 19.1113 68.3109 19.1113C69.1722 19.1113 69.9925 19.2695 70.7718 19.5859V19.4541C70.7718 18.7803 70.2152 18.4463 69.1019 18.4521L67.1947 18.5752C66.6615 18.5752 66.2425 18.458 65.9379 18.2236C65.6332 17.9893 65.4808 17.5293 65.4808 16.8438C65.4808 16.1582 65.5482 15.7041 65.683 15.4814C66.6849 15.1299 67.7513 14.9482 68.8822 14.9365C70.388 14.9365 71.6361 15.3438 72.6263 16.1582C73.6224 16.9668 74.1205 18.127 74.1205 19.6387L73.9447 22.2842C73.9388 22.4834 74.1293 22.668 74.516 22.8379C74.516 23.8867 74.3373 24.5107 73.9798 24.71C73.6283 24.9033 73.2914 25 72.9691 25C72.6468 25 72.3744 24.9414 72.1517 24.8242C71.9408 24.707 71.7738 24.5869 71.6507 24.4639C71.5336 24.3291 71.4046 24.1533 71.264 23.9365ZM69.2777 22.7676C69.9222 22.7676 70.3968 22.6182 70.7015 22.3193V21.6514C70.6254 21.5752 70.4086 21.4785 70.0511 21.3613C69.2894 21.1035 68.7445 21.1211 68.4164 21.4141C68.1293 21.6426 68.0707 21.9238 68.2406 22.2578C68.4164 22.6152 68.7621 22.7852 69.2777 22.7676ZM68.1966 9.53125C69.1107 9.13281 69.9925 9.16797 70.8421 9.63672C71.2582 10 71.4662 10.4629 71.4662 11.0254C71.4662 11.5879 71.2259 12.0566 70.7455 12.4316C70.5638 12.6484 70.2826 12.8916 69.9017 13.1611C69.1693 13.5068 68.7152 13.3457 68.5394 12.6777C68.5394 12.3672 68.642 12.1152 68.847 11.9219L69.1546 11.6934C69.4945 11.4707 69.6791 11.248 69.7084 11.0254C69.6966 10.7852 69.5443 10.665 69.2513 10.665L68.6097 10.7529C68.2757 10.7529 68.0765 10.542 68.0121 10.1201C68.0121 9.85645 68.0736 9.66016 68.1966 9.53125ZM75.1657 15.8418C75.1657 15.0449 75.4235 14.4414 75.9391 14.0312C76.4606 13.6152 77.1286 13.4072 77.943 13.4072C78.7633 13.4072 79.4723 13.6885 80.07 14.251C80.6735 14.8018 80.9752 15.5371 80.9752 16.457C80.9752 17.3711 80.5739 18.124 79.7711 18.7158C80.0817 18.9736 80.237 19.3457 80.237 19.832V24.2441C79.7916 24.7715 78.983 25.0352 77.8112 25.0352C76.4694 25.0352 75.778 24.4961 75.737 23.418C75.6901 21.666 75.6666 20.6758 75.6666 20.4473C75.6666 20.084 75.6784 19.8174 75.7018 19.6475C75.7311 19.4482 75.7985 19.2549 75.9039 19.0674C76.0153 18.874 76.1354 18.7451 76.2643 18.6807C76.5514 18.7803 76.8854 18.8359 77.2663 18.8477C78.0455 18.8477 78.7135 18.5781 79.2702 18.0391C79.8327 17.4941 80.1139 16.8438 80.1139 16.0879L79.6305 15.8242C79.6305 16.4395 79.3961 16.9727 78.9274 17.4238C78.4645 17.8691 77.9108 18.0918 77.2663 18.0918H77.1959C76.8971 18.0918 76.5631 18.0068 76.194 17.8369C75.5084 17.5029 75.1657 16.8379 75.1657 15.8418ZM95.6178 17.5293C95.6178 17.957 95.5329 18.4258 95.3629 18.9355C95.1754 19.6035 94.7887 20.4355 94.2028 21.4316C93.6227 22.416 93.0866 23.2334 92.5944 23.8838L91.8561 24.8594C91.4518 24.9766 91.0299 25.0352 90.5905 25.0352C89.8522 25.0352 89.1959 24.8506 88.6217 24.4814C88.0475 24.1006 87.6432 23.5527 87.4088 22.8379C85.8268 19.1465 84.9508 17.2451 84.7809 17.1338C84.7809 16.6416 85.0621 16.1934 85.6246 15.7891C86.1813 15.3789 86.7409 15.1738 87.3034 15.1738C88.1061 15.1738 88.7565 15.6514 89.2545 16.6064C89.7467 17.5381 90.1393 19.0469 90.4323 21.1328H90.5377C91.0299 18.8008 91.3551 16.9639 91.5133 15.6221C91.8473 15.2646 92.3454 15.0859 93.0075 15.0859C93.3356 15.0801 93.7194 15.1562 94.1588 15.3145C95.1315 15.6836 95.6178 16.4219 95.6178 17.5293ZM99.9948 12.3613C100.305 12.1211 101.038 11.6172 102.192 10.8496L102.781 10.4541C103.033 10.4541 103.308 10.624 103.607 10.9639C103.912 11.292 104.064 11.6318 104.064 11.9834C104.064 12.1064 103.956 12.2852 103.739 12.5195C103.522 12.7539 102.485 13.4746 100.628 14.6816C100.299 14.6816 100.001 14.5615 99.7311 14.3213C99.4733 14.0752 99.3444 13.7676 99.3444 13.3984C99.3444 13.0352 99.5612 12.6895 99.9948 12.3613ZM105.576 19.3311C105.576 20.4092 105.377 21.0449 104.978 21.2383H99.4411C99.4411 21.3262 99.5553 21.5107 99.7838 21.792C100.024 22.0732 100.469 22.2139 101.12 22.2139C102.315 22.2139 103.141 22.0557 103.598 21.7393L103.827 21.5811C103.897 21.5811 104.152 21.6543 104.591 21.8008C105.043 21.9531 105.28 22.2578 105.303 22.7148C105.315 22.8438 105.321 23.0078 105.321 23.207C105.321 23.4355 105.28 23.6465 105.198 23.8398C105.116 24.0273 104.884 24.2676 104.504 24.5605C104.123 24.8535 103.124 25 101.506 25C100.516 25 99.6608 24.8652 98.9401 24.5957C98.2077 24.3203 97.5485 23.8428 96.9625 23.1631C96.3707 22.4658 96.0748 21.4521 96.0748 20.1221C96.0748 19.665 96.1393 19.1611 96.2682 18.6104C96.403 18.0479 96.5875 17.5908 96.8219 17.2393C97.0621 16.8701 97.4518 16.4307 97.9909 15.9209C98.5416 15.3994 99.5817 15.1387 101.111 15.1387C102.57 15.1387 103.651 15.4844 104.354 16.1758C104.659 16.4629 104.94 16.873 105.198 17.4062C105.45 17.916 105.576 18.5576 105.576 19.3311ZM102.385 19.3486V19.2256C102.385 18.8447 102.268 18.5342 102.034 18.2939C101.788 18.0479 101.451 17.9248 101.023 17.9248C100.144 17.9248 99.6871 18.3994 99.652 19.3486H102.385Z" fill="white"/>
</g>
</g>
<defs>
<filter id="filter0_d_190_583" x="-8" y="-4" width="176" height="56" filterUnits="userSpaceOnUse" color-interpolation-filters="sRGB">
<feFlood flood-opacity="0" result="BackgroundImageFix"/>
<feColorMatrix in="SourceAlpha" type="matrix" values="0 0 0 0 0 0 0 0 0 0 0 0 0 0 0 0 0 0 127 0" result="hardAlpha"/>
<feOffset dy="4"/>
<feGaussianBlur stdDeviation="4"/>
<feColorMatrix type="matrix" values="0 0 0 0 0.645833 0 0 0 0 0.0592014 0 0 0 0 0.0592014 0 0 0 0.45 0"/>
<feBlend mode="normal" in2="BackgroundImageFix" result="effect1_dropShadow_190_583"/>
<feBlend mode="normal" in="SourceGraphic" in2="effect1_dropShadow_190_583" result="shape"/>
</filter>
<linearGradient id="paint0_linear_190_583" x1="160" y1="22.0568" x2="109.13" y2="22.2186" gradientUnits="userSpaceOnUse">
<stop offset="0.28125" stop-color="#93000A"/>
<stop offset="1" stop-color="#D23333" stop-opacity="0"/>
</linearGradient>
<linearGradient id="paint1_linear_190_583" x1="-0.000386551" y1="22.0568" x2="50.8696" y2="22.2186" gradientUnits="userSpaceOnUse">
<stop offset="0.28125" stop-color="#93000A"/>
<stop offset="1" stop-color="#D23333" stop-opacity="0"/>
</linearGradient>
<clipPath id="clip0_190_583">
<rect width="160" height="40" fill="white"/>
</clipPath>
<clipPath id="clip1_190_583">
<rect width="160" height="40" fill="white"/>
</clipPath>
</defs>
</svg>
