<svg width="539" height="205" viewBox="0 0 539 205" fill="none" xmlns="http://www.w3.org/2000/svg">
<path d="M43.5713 205C19.5227 205 0 184.377 0 159.052L0 117.948C0 92.5874 19.5565 72 43.5713 72H495.429C519.477 72 539 92.623 539 117.948L539 159.052C539 184.413 519.444 205 495.429 205H43.5713Z" fill="#FFCA7B"/>
<path d="M43.5713 189C19.5227 189 0 166.399 0 138.644V50.3556C0 22.5624 19.5565 0 43.5713 0H495.429C519.477 0 539 22.6014 539 50.3556V138.644C539 166.438 519.444 189 495.429 189H43.5713Z" fill="#FDE8B3"/>
<path d="M496.765 177L42.2387 176.023C25.5228 176.023 12.0005 159.475 12.0005 139.111L12 48.9121C12 28.5068 25.5563 12 42.2382 12H496.761C513.477 12 526.999 28.5482 526.999 48.9121L527 139.111C527 159.516 513.481 177 496.765 177Z" fill="#FFF6D4"/>
<path d="M496.762 177H42.2382C25.5223 177 12 161.847 12 143.2L12 45.8005C12 27.1153 25.5563 12 42.2383 12H496.762C513.478 12 527 27.1533 527 45.8005L527 143.2C527 161.885 513.478 177 496.762 177Z" stroke="#FFB489" stroke-width="3" stroke-miterlimit="2.61313" stroke-linecap="round" stroke-dasharray="10 10"/>
<g clip-path="url(#clip0_158_91)">
<path d="M103.143 114.747C100.727 110.054 98.6836 107.61 96.0018 104.928C93.3199 102.246 90.8754 100.203 86.183 97.7868L83.516 100.454C81.0727 102.897 76.2152 99.9341 73.6409 97.3596C71.0664 94.7852 68.1035 89.9276 70.5467 87.4844L73.2138 84.8174C70.7976 80.1249 68.7544 77.6804 66.0725 74.9987C63.3907 72.317 60.9462 70.2736 56.2538 67.8575L53.5866 70.5244C42.9562 81.155 52.8651 98.9127 62.4764 108.524C72.0878 118.135 89.8456 128.044 100.476 117.414L103.143 114.747Z" fill="url(#paint0_linear_158_91)"/>
<path d="M102.987 111.429C102.024 110.455 100.452 110.451 99.4838 111.419L96.9828 113.921C94.8703 116.033 92.3039 117.06 89.1363 117.06C85.7498 117.06 82.0162 115.889 78.3866 114.068C77.2253 113.485 75.811 113.902 75.1504 115.021C74.4233 116.252 74.8862 117.846 76.1646 118.486C84.5843 122.704 93.8956 123.994 100.476 117.414L102.977 114.913C103.938 113.952 103.942 112.396 102.987 111.429Z" fill="#E20000"/>
<path d="M74.7844 72.2924L68.7785 66.2866C65.7536 63.2617 60.8493 63.2617 57.8244 66.2866L56.2534 67.8575C58.0291 71.3027 60.7022 75.0052 63.3839 77.687C66.0656 80.3687 69.7682 83.0418 73.2135 84.8175L74.7844 83.2467C77.8093 80.2216 77.8093 75.3173 74.7844 72.2924Z" fill="#FFD000"/>
<path d="M98.7081 96.216L104.714 102.222C107.739 105.247 107.739 110.151 104.714 113.176L103.143 114.747C99.6979 112.971 95.9953 110.298 93.3136 107.616C90.6319 104.935 87.9589 101.232 86.1831 97.7869L87.754 96.216C90.7789 93.191 95.6832 93.1911 98.7081 96.216Z" fill="#FFD000"/>
<path d="M99.4837 111.419L98.7866 112.117C100.218 113.104 101.697 114.001 103.132 114.741C103.934 113.775 103.887 112.34 102.987 111.429C102.024 110.455 100.452 110.451 99.4837 111.419Z" fill="#EFC534"/>
<path d="M105.592 83.2856C105.592 73.4277 97.5723 65.4078 87.7145 65.4077C86.2213 65.4076 85.0107 64.197 85.0107 62.7038C85.0109 61.2106 86.2213 60 87.7147 60C100.554 60.0002 111 70.4459 111 83.2854C111 84.7788 109.79 85.9894 108.296 85.9892C106.803 85.9894 105.592 84.7789 105.592 83.2856Z" fill="#FFD000"/>
<path d="M95.319 83.2852C95.319 79.0923 91.908 75.6812 87.715 75.6812C86.2218 75.6812 85.0115 74.4707 85.0112 72.9773C85.0114 71.4841 86.2218 70.2735 87.7151 70.2735C94.8895 70.2736 100.726 76.1106 100.727 83.2849C100.727 84.7783 99.5161 85.9889 98.0228 85.9887C96.5298 85.9891 95.319 84.7785 95.319 83.2852Z" fill="#FFD000"/>
<path d="M60.5197 70.94C60.2036 70.94 59.8875 70.8195 59.6464 70.5783C59.1641 70.096 59.1641 69.314 59.6464 68.8315L60.0081 68.4698C60.5627 67.9154 61.2501 67.5076 61.9962 67.2906C62.651 67.1 63.3365 67.4766 63.5269 68.1316C63.7175 68.7866 63.3409 69.4721 62.686 69.6625C62.333 69.7651 62.0198 69.9515 61.7548 70.2165L61.393 70.5783C61.1518 70.8195 60.8357 70.94 60.5197 70.94Z" fill="#FFFDE3"/>
<path d="M53.9373 79.1091C53.8069 79.1091 53.6744 79.0882 53.5439 79.0445C52.8974 78.8274 52.5491 78.1272 52.7662 77.4805C53.3681 75.6883 54.3506 74.1271 55.7699 72.7077L56.0521 72.4254C56.5344 71.9431 57.3164 71.943 57.7987 72.4252C58.2811 72.9075 58.2811 73.6894 57.799 74.1718L57.5166 74.4542C56.3732 75.5976 55.5854 76.8446 55.1079 78.2668C54.9346 78.783 54.4533 79.1091 53.9373 79.1091Z" fill="white"/>
</g>
<defs>
<linearGradient id="paint0_linear_158_91" x1="76.0005" y1="125.5" x2="76.0717" y2="91.7809" gradientUnits="userSpaceOnUse">
<stop stop-color="#E61F1F"/>
<stop offset="1" stop-color="#FF6969"/>
</linearGradient>
<clipPath id="clip0_158_91">
<rect width="62" height="62" fill="white" transform="translate(49 60)"/>
</clipPath>
</defs>
</svg>
