<svg width="539" height="207" viewBox="0 0 539 207" fill="none" xmlns="http://www.w3.org/2000/svg">
<path d="M43.5713 205C19.5227 205 0 184.377 0 159.052L0 117.948C0 92.5874 19.5565 72 43.5713 72H495.429C519.477 72 539 92.623 539 117.948L539 159.052C539 184.413 519.444 205 495.429 205H43.5713Z" fill="#FFCA7B"/>
<path d="M43.5713 189C19.5227 189 0 166.399 0 138.644V50.3556C0 22.5624 19.5565 0 43.5713 0H495.429C519.477 0 539 22.6014 539 50.3556V138.644C539 166.438 519.444 189 495.429 189H43.5713Z" fill="#FDE8B3"/>
<path d="M496.765 177L42.2387 176.023C25.5228 176.023 12.0005 159.475 12.0005 139.111L12 48.9121C12 28.5068 25.5563 12 42.2382 12H496.761C513.477 12 526.999 28.5482 526.999 48.9121L527 139.111C527 159.516 513.481 177 496.765 177Z" fill="#FFF6D4"/>
<path d="M496.762 177H42.2382C25.5223 177 12 161.847 12 143.2L12 45.8005C12 27.1153 25.5563 12 42.2383 12H496.762C513.478 12 527 27.1533 527 45.8005L527 143.2C527 161.885 513.478 177 496.762 177Z" stroke="#FFB489" stroke-width="3" stroke-miterlimit="2.61313" stroke-linecap="round" stroke-dasharray="10 10"/>
<g clip-path="url(#clip0_158_78)">
<path d="M84.4658 91.3492C98.8833 92.2669 109.822 96.7267 109.822 102.088C109.822 108.115 96.0016 113 78.9537 113C61.9059 113 48.0859 108.115 48.0859 102.088C48.0859 96.7267 59.0242 92.2669 73.4416 91.3492" fill="#6EC1E4"/>
<g clip-path="url(#clip1_158_78)">
<path d="M78.8968 102.284C72.4473 102.284 58.1377 87.8699 58.1377 70.7564C58.1377 59.7906 67.4319 50.9011 78.8968 50.9011C90.3618 50.9011 99.656 59.7906 99.656 70.7564C99.656 87.8699 85.3464 102.284 78.8968 102.284Z" fill="url(#paint0_linear_158_78)"/>
<path d="M78.8965 77.743C82.9308 77.743 86.2012 74.615 86.2012 70.7564C86.2012 66.8977 82.9308 63.7697 78.8965 63.7697C74.8622 63.7697 71.5918 66.8977 71.5918 70.7564C71.5918 74.615 74.8622 77.743 78.8965 77.743Z" fill="white"/>
<path d="M71.2381 85.134C73.2497 85.134 74.8805 83.5742 74.8805 81.6502C74.8805 79.7261 73.2497 78.1664 71.2381 78.1664C69.2265 78.1664 67.5957 79.7261 67.5957 81.6502C67.5957 83.5742 69.2265 85.134 71.2381 85.134Z" fill="white"/>
<path d="M74.8802 81.6502C74.8802 82.7969 73.9083 83.7265 72.7094 83.7265C71.5105 83.7265 70.5386 82.7969 70.5386 81.6502C70.5386 80.5034 71.5105 79.5739 72.7094 79.5739C73.9083 79.5737 74.8802 80.5033 74.8802 81.6502Z" fill="#3B3B44"/>
<path d="M86.556 85.134C88.5676 85.134 90.1984 83.5742 90.1984 81.6502C90.1984 79.7261 88.5676 78.1664 86.556 78.1664C84.5443 78.1664 82.9136 79.7261 82.9136 81.6502C82.9136 83.5742 84.5443 85.134 86.556 85.134Z" fill="white"/>
<path d="M90.1908 81.6502C90.1908 82.7969 89.2189 83.7265 88.02 83.7265C86.821 83.7265 85.8491 82.7969 85.8491 81.6502C85.8491 80.5034 86.821 79.5739 88.02 79.5739C89.2189 79.5737 90.1908 80.5033 90.1908 81.6502Z" fill="#3B3B44"/>
<path d="M78.8968 86.3321C79.7969 86.3321 80.5265 85.4183 80.5265 84.2911C80.5265 83.1639 79.7969 82.2501 78.8968 82.2501C77.9967 82.2501 77.2671 83.1639 77.2671 84.2911C77.2671 85.4183 77.9967 86.3321 78.8968 86.3321Z" fill="white"/>
<path d="M82.5667 98.0234C82.1936 98.0234 81.8249 97.8615 81.5833 97.5544C81.1749 97.0355 81.2834 96.2979 81.8263 95.9073C82.7596 95.2353 83.7248 94.4042 84.6955 93.4368C85.1657 92.9681 85.9444 92.9527 86.4343 93.4026C86.9244 93.8524 86.9404 94.597 86.4701 95.0657C85.4085 96.1237 84.3438 97.0392 83.3055 97.7868C83.0839 97.9462 82.8241 98.0234 82.5667 98.0234Z" fill="#E3FCFF"/>
<path d="M88.7517 91.7742C88.5027 91.7742 88.2513 91.7021 88.0338 91.552C87.4828 91.1721 87.358 90.437 87.7551 89.9101C87.9076 89.7076 88.0637 89.4957 88.2189 89.2801C88.604 88.7449 89.3695 88.6098 89.9291 88.9782C90.4886 89.3465 90.63 90.0788 90.2448 90.614C90.0797 90.8435 89.9133 91.0695 89.7504 91.2856C89.5101 91.6045 89.1336 91.7742 88.7517 91.7742Z" fill="#E3FCFF"/>
</g>
</g>
<defs>
<linearGradient id="paint0_linear_158_78" x1="78.8968" y1="102.619" x2="78.8968" y2="40.8487" gradientUnits="userSpaceOnUse">
<stop stop-color="#FF455E"/>
<stop offset="1" stop-color="#FF919F"/>
</linearGradient>
<clipPath id="clip0_158_78">
<rect width="62" height="62" fill="white" transform="translate(48 51)"/>
</clipPath>
<clipPath id="clip1_158_78">
<rect width="45.2728" height="53.1429" fill="white" transform="translate(56.2607 51)"/>
</clipPath>
</defs>
</svg>
